<svg xmlns="http://www.w3.org/2000/svg" viewBox="0 0 100 100">
  <defs>
    <linearGradient id="iconGradient" x1="0%" y1="0%" x2="100%" y2="100%">
      <stop offset="0%" style="stop-color:#06B6D4;stop-opacity:1" />
      <stop offset="100%" style="stop-color:#3B82F6;stop-opacity:1" />
    </linearGradient>
  </defs>
  
  <!-- Background Circle -->
  <circle cx="50" cy="50" r="45" fill="url(#iconGradient)" />
  
  <!-- Icon Grid -->
  <g transform="translate(50, 50)">
    <!-- Grid of icons representing icon management -->
    
    <!-- Top Left - Image icon -->
    <g transform="translate(-18, -18)">
      <rect x="-8" y="-8" width="16" height="16" rx="2" fill="none" stroke="white" stroke-width="2.5"/>
      <circle cx="0" cy="-2" r="2" fill="white"/>
      <path d="M -8,4 L -2,0 L 2,2 L 8,0 L 8,8 L -8,8 Z" fill="white" opacity="0.8"/>
    </g>
    
    <!-- Top Right - Star icon -->
    <g transform="translate(18, -18)">
      <path d="M 0,-8 L 2,-2 L 8,-2 L 3,2 L 5,8 L 0,4 L -5,8 L -3,2 L -8,-2 L -2,-2 Z" 
            fill="white" 
            stroke="white" 
            stroke-width="1" 
            stroke-linejoin="round"/>
    </g>
    
    <!-- Bottom Left - Heart icon -->
    <g transform="translate(-18, 18)">
      <path d="M 0,6 C -8,-2 -8,-8 -4,-8 C -2,-8 0,-6 0,-6 C 0,-6 2,-8 4,-8 C 8,-8 8,-2 0,6 Z" 
            fill="white"/>
    </g>
    
    <!-- Bottom Right - Settings icon (selected/highlighted) -->
    <g transform="translate(18, 18)">
      <!-- Highlight circle -->
      <circle cx="0" cy="0" r="12" fill="white" opacity="0.2"/>
      <!-- Gear icon -->
      <path d="M 3,-8 L 3,-5 C 5,-4 6,-2 6,0 C 6,2 5,4 3,5 L 3,8 L -3,8 L -3,5 C -5,4 -6,2 -6,0 C -6,-2 -5,-4 -3,-5 L -3,-8 Z" 
            fill="white"/>
      <circle cx="0" cy="0" r="3" fill="url(#iconGradient)"/>
    </g>
    
    <!-- Center selection cursor -->
    <g transform="translate(0, 0)">
      <path d="M -2,-10 L -2,-6 M 2,-10 L 2,-6 M -10,-2 L -6,-2 M 10,-2 L 6,-2" 
            stroke="white" 
            stroke-width="2" 
            stroke-linecap="round"
            opacity="0.8"/>
    </g>
  </g>
</svg>